<?xml version="1.0"?>
<svg version="1.1" xmlns="http://www.w3.org/2000/svg" width="200px" height="40px" style=""><path fill="#3131c4" d="M51.147216796875,12.999267578125q-0.045166015625-0.551025390625,0.072265625-0.95751953125t0.4697265625-0.66845703125t1.129150390625-0.261962890625l2.90869140625,0q0.59619140625,0,1.562744140625,0.063232421875t2.07763671875,0.189697265625t2.213134765625,0.388427734375t2.014404296875,0.650390625t1.4814453125,0.95751953125t0.569091796875,1.345947265625q0,1.10205078125-0.641357421875,2.068603515625t-1.60791015625,1.743408203125t-2.04150390625,1.382080078125t-1.924072265625,1.093017578125q3.3603515625,0.74072265625,5.25732421875,3.0712890625t1.89697265625,5.8173828125q0,1.8427734375-0.70458984375,3.640380859375t-1.924072265625,3.242919921875t-2.890625,2.33056640625t-3.586181640625,0.88525390625q-0.2529296875,0-0.569091796875-0.05419921875t-0.578125-0.171630859375t-0.45166015625-0.334228515625t-0.189697265625-0.56005859375q0-1.58984375,1.71630859375-1.58984375q0.2890625,0,0.677490234375,0.081298828125t0.605224609375,0.334228515625q0.99365234375-0.41552734375,1.815673828125-1.31884765625t1.39111328125-2.014404296875t0.88525390625-2.33056640625t0.316162109375-2.213134765625q0-1.1923828125-0.352294921875-2.429931640625t-1.020751953125-2.29443359375t-1.64404296875-1.779541015625t-2.240234375-0.9033203125q-0.3251953125-0.0361328125-0.713623046875-0.05419921875l-0.77685546875-0.0361328125t-0.7587890625-0.1083984375t-0.641357421875-0.2890625q0.14453125,2.9990234375,0.370361328125,5.97998046875t0.605224609375,5.97998046875q0.14453125,0.14453125,0.19873046875,0.424560546875t0.09033203125,0.59619140625t0.0361328125,0.605224609375l0,0.48779296875q0,0.3251953125-0.216796875,0.532958984375t-0.514892578125,0.334228515625t-0.63232421875,0.16259765625t-0.587158203125,0.0361328125q-0.81298828125,0-1.24658203125-0.216796875t-0.6142578125-0.63232421875t-0.23486328125-0.948486328125t-0.09033203125-1.165283203125q-0.48779296875-5.04052734375-0.70458984375-9.97265625t-0.216796875-9.97265625q0-0.59619140625-0.045166015625-1.147216796875z M54.48046875,12.2314453125q0,2.22216796875,0.14453125,4.453369140625t0.2529296875,4.453369140625q0.81298828125-0.48779296875,2.1318359375-1.147216796875t2.556396484375-1.454345703125t2.122802734375-1.75244140625t0.88525390625-2.07763671875q0-0.88525390625-1.0478515625-1.345947265625t-2.43896484375-0.6865234375t-2.718994140625-0.280029296875t-1.887939453125-0.16259765625z M70.264545898438,15.591796875q0-0.84912109375,0.045166015625-1.68017578125t0.153564453125-1.64404296875q0.072265625-0.41552734375,0.641357421875-0.59619140625t0.948486328125-0.1806640625l0.43359375,0.0361328125q0.52392578125,0.072265625,1.056884765625-0.072265625t1.056884765625-0.14453125q1.228515625,0,2.74609375,0.27099609375t2.845458984375,0.92138671875t2.231201171875,1.707275390625t0.9033203125,2.610595703125t-0.939453125,2.899658203125t-2.36669921875,2.36669921875t-3.0712890625,1.598876953125t-3.01708984375,0.578125q0.14453125,3.48681640625,0.406494140625,6.91943359375t0.894287109375,6.865234375l0.0361328125,0.23486328125q0,0.2529296875-0.225830078125,0.41552734375t-0.532958984375,0.261962890625t-0.623291015625,0.135498046875t-0.514892578125,0.0361328125q-0.45166015625,0-1.093017578125-0.171630859375t-0.785888671875-0.677490234375q-0.41552734375-1.58984375-0.650390625-3.495849609375t-0.34326171875-3.983642578125t-0.153564453125-4.182373046875t-0.045166015625-4.110107421875l0-4.06494140625q0-0.66845703125-0.01806640625-1.39111328125t-0.01806640625-1.46337890625z M73.679096679688,12.6650390625q0,2.47509765625,0.05419921875,4.941162109375t0.12646484375,4.941162109375q1.06591796875-0.216796875,2.177001953125-0.767822265625t2.00537109375-1.309814453125t1.4453125-1.725341796875t0.551025390625-2.032470703125q0-0.95751953125-0.478759765625-1.71630859375t-1.237548828125-1.30078125q-0.74072265625-0.52392578125-1.68017578125-0.81298828125q-0.8310546875-0.2529296875-1.6259765625-0.2529296875l-0.19873046875,0z"/><path fill="#" d=""/></svg>
